<?xml version="1.0" encoding="UTF-8" standalone="no"?>
<!-- Created with Inkscape (http://www.inkscape.org/) -->

<svg
   version="1.1"
   id="svg1"
   width="51.200001"
   height="51.200001"
   viewBox="0 0 51.200001 51.200001"
   xmlns="http://www.w3.org/2000/svg"
   xmlns:svg="http://www.w3.org/2000/svg">
  <defs
     id="defs1" />
  <g
     id="g1">
    <path
       style="fill:#73d216;fill-opacity:1;stroke-width:0.0883883;stroke:none;stroke-opacity:1"
       d="M 2.6700804,7.9365213 C 1.2972281,3.6053789 0.18820289,0.04749938 0.20557985,0.03012241 0.22295681,0.01274545 2.483474,0.00880283 5.2289513,0.02136105 L 10.220728,0.04419417 7.7399175,7.8828217 C 6.3754716,12.194067 5.2381971,15.741671 5.212641,15.766387 5.1870848,15.791103 4.0429326,12.267664 2.6700804,7.9365213 Z"
       id="path6917" />
    <path
       style="fill:#cc0000;fill-opacity:1;stroke-width:0.0883883"
       d="M 0.19773128,51.022174 C 0.54963578,49.712829 5.1786887,35.382498 5.2235454,35.463575 5.3097139,35.61932 10.16466,50.966172 10.16466,51.082811 c 0,0.06536 -1.526425,0.09404 -5.0042505,0.09404 -4.72286437,0 -5.00191293,-0.0087 -4.96267822,-0.154679 z"
       id="path6926" />
    <path
       style="fill:#73d216;fill-opacity:1;stroke-width:0.0883883;stroke:none"
       d="M 25.548223,15.891329 C 25.544493,15.832667 21.047341,1.605701 20.68928,0.51982006 l -0.163766,-0.49664595 5.00633,0.04381924 c 2.753482,0.02410057 5.012951,0.04871747 5.021043,0.0547042 0.0081,0.005987 -1.113749,3.57072565 -2.49298,7.92164205 -1.379232,4.3509164 -2.509489,7.8825114 -2.511684,7.8479894 z"
       id="path6918" />
    <path
       style="fill:#73d216;fill-opacity:1;stroke-width:0.0883883;stroke:none"
       d="M 43.450564,8.0641412 C 42.09705,3.7990111 40.971504,0.25964077 40.949351,0.19887378 c -0.03192,-0.0875612 0.997428,-0.11048543 4.96103,-0.11048543 2.750719,0 5.001598,0.02983106 5.001953,0.06629126 0.0012,0.12242307 -4.879958,15.53346139 -4.940762,15.59924739 -0.03304,0.03575 -1.167494,-3.424656 -2.521008,-7.6897858 z"
       id="path6919" />
    <path
       style="fill:#73d216;fill-opacity:1;stroke-width:0.0883883"
       d="m 33.222615,43.223386 2.521713,-7.953468 0.373462,1.169662 c 1.092046,3.420227 4.629238,14.641609 4.629238,14.685787 0,0.02832 -2.260378,0.05149 -5.023063,0.05149 h -5.023064 z"
       id="path6920" />
    <path
       style="fill:#73d216;fill-opacity:1;stroke-width:0.0883883"
       d="m 10.364655,51.066368 c 0.02317,-0.06077 1.148596,-3.600721 2.500941,-7.866563 1.352346,-4.265843 2.48306,-7.756078 2.512699,-7.756078 0.05852,0 0.202625,0.447306 3.046875,9.457553 1.051185,3.330031 1.928288,6.104321 1.949118,6.165088 0.03001,0.08754 -1.009819,0.110485 -5.006946,0.110485 -3.999399,0 -5.036088,-0.02289 -5.002687,-0.110485 z"
       id="path6921" />
    <path
       style="fill:#cc0000;fill-opacity:1;stroke-width:0.0883883;stroke:none"
       d="M 15.364768,15.776882 C 15.336162,15.728509 14.215888,12.226503 12.87527,7.9946454 11.534651,3.7627879 10.411849,0.23277831 10.380153,0.15017955 10.326471,0.01028578 10.58555,0 14.162898,0 c 2.112206,0 4.377622,0.02576594 5.034258,0.05725764 l 1.193884,0.05725765 -0.154695,0.49516953 c -0.08508,0.27234321 -1.137333,3.59760048 -2.338338,7.38946058 -1.201004,3.7918606 -2.2506,7.1128556 -2.332436,7.3799896 -0.08184,0.267134 -0.172198,0.446121 -0.200803,0.397747 z"
       id="path6922" />
    <path
       style="fill:#cc0000;fill-opacity:1;stroke-width:0.0883883;stroke:none"
       d="m 33.284346,8.1142161 c -1.357808,-4.2926713 -2.4857,-7.85457533 -2.506428,-7.91534232 -0.02986,-0.087532 1.003011,-0.11048543 4.971668,-0.11048543 4.72948,0 5.006775,0.008642 4.963178,0.15467961 C 40.607825,0.59458718 36.802018,12.639704 36.298783,14.213012 l -0.545696,1.706061 z"
       id="path6923" />
    <path
       style="fill:#cc0000;fill-opacity:1;stroke-width:0.0883883"
       d="m 40.923805,51.116969 c 0,-0.200676 4.991564,-15.753084 5.038118,-15.69746 0.03149,0.03763 1.004181,3.071407 2.161533,6.741733 1.157351,3.670326 2.273358,7.200335 2.480015,7.844466 l 0.37574,1.171145 h -5.027703 c -2.765237,0 -5.027703,-0.02695 -5.027703,-0.05988 z"
       id="path6924" />
    <path
       style="fill:#cc0000;fill-opacity:1;stroke-width:0.0883883"
       d="m 20.630316,50.801203 c 0.764416,-2.480512 4.863841,-15.329539 4.906109,-15.377457 0.03114,-0.0353 1.164996,3.444994 2.519691,7.73398 1.354694,4.288986 2.48155,7.847875 2.504123,7.908642 0.03253,0.08758 -1.004667,0.110485 -5.002322,0.110485 h -5.043365 z"
       id="path6925" />
    <path
       style="font-style:normal;font-variant:normal;font-weight:normal;font-stretch:normal;font-size:16px;font-family:'Liberation Sans';-inkscape-font-specification:'Liberation Sans';fill:#000000;fill-opacity:1;stroke:none;stroke-opacity:1"
       d="m 33.212244,19.333071 5.26e-4,7.533136 c 6e-5,0.864582 -0.06581,3.410469 0.303987,4.035468 0.369791,0.624999 0.90927,1.173033 1.581144,1.501158 0.671874,0.328124 1.458334,0.492187 2.359375,0.492187 0.937499,0 1.750001,-0.169271 2.4375,-0.507813 0.692708,-0.343749 1.226563,-0.838542 1.601562,-1.484374 0.380208,-0.645833 0.329102,-3.110598 0.329102,-4.001222 l -0.01882,-7.574208 h -1.484375 l 0.01882,7.368462 c 0.0026,1.036455 -0.03483,3.641864 -0.586914,4.18353 -0.546874,0.536458 -1.315105,0.804688 -2.304687,0.804688 -0.963541,0 -1.766928,-0.260418 -2.277344,-0.78125 -0.510417,-0.520833 -0.467231,-3.1742 -0.467286,-4.179407 l -4.04e-4,-7.390355 z"
       id="path6928" />
    <path
       style="font-style:normal;font-variant:normal;font-weight:normal;font-stretch:normal;font-size:16px;font-family:'Liberation Sans';-inkscape-font-specification:'Liberation Sans';fill:#000000;fill-opacity:1;stroke:none;stroke-opacity:1"
       d="m 21.540161,19.356445 v 13.555176 h 1.328125 V 24.15625 l -0.03906,-1.304687 -0.03906,-0.757813 6.320923,10.817871 h 1.366577 V 19.356445 h -1.34375 v 8.323242 c 0,0.458333 -0.125854,2.264446 -0.06335,3.285278 l -6.282105,-11.60852 z"
       id="path6927" />
    <path
       style="font-style:normal;font-variant:normal;font-weight:normal;font-stretch:normal;font-size:16px;font-family:'Liberation Sans';-inkscape-font-specification:'Liberation Sans';fill:#000000;fill-opacity:1;stroke:none;stroke-opacity:1"
       d="m 14.319666,19.353343 c -2.814547,-0.01401 -3.837102,1.237182 -4.4975982,3.214123 -0.00125,0.327335 -7.77e-5,1.961874 6.688e-4,4.184364 -0.01356,0.960596 -0.00404,3.705483 0.1527181,4.172676 0.2835003,0.738755 1.0302543,1.139064 1.9659913,1.532773 1.014786,0.466903 1.81239,0.492164 2.360895,0.477462 0.501063,0.01 1.26775,-0.01157 2.233822,-0.485735 0.735187,-0.354728 1.462253,-0.776727 1.880978,-1.521089 0.250783,-0.586234 0.194611,-3.472391 0.202968,-4.22261 0.002,-0.409587 -0.0088,-1.228745 -0.0088,-1.228745 h -3.980712 v 1.25 h 2.835079 c 0.1348,1.753235 0.03409,3.087562 -0.93232,4.1952 -0.462629,0.39672 -1.283246,0.767558 -2.232709,0.755312 -1.14596,-0.01478 -1.814589,-0.297036 -2.378791,-0.756982 -0.774876,-1.078093 -0.748294,-2.825326 -0.747717,-4.16771 0.0092,-1.347263 -0.02391,-2.360526 0.0044,-3.756707 0.376432,-1.435644 1.825043,-2.609231 3.129529,-2.609594 1.398933,-3.89e-4 2.675326,1.077975 3.167,2.602636 L 18.59084,22.5772 c -0.899941,-1.984046 -2.038193,-3.21274 -4.271174,-3.223857 z"
       id="text6926" />
  </g>
</svg>
