<?xml version="1.0" encoding="UTF-8" standalone="no"?>
<svg
   xmlns:dc="http://purl.org/dc/elements/1.1/"
   xmlns:cc="http://creativecommons.org/ns#"
   xmlns:rdf="http://www.w3.org/1999/02/22-rdf-syntax-ns#"
   xmlns:svg="http://www.w3.org/2000/svg"
   xmlns="http://www.w3.org/2000/svg"
   xmlns:xlink="http://www.w3.org/1999/xlink"
   xmlns:sodipodi="http://sodipodi.sourceforge.net/DTD/sodipodi-0.dtd"
   xmlns:inkscape="http://www.inkscape.org/namespaces/inkscape"
   viewBox="0 0 512 512"
   version="1.1"
   id="svg106"
   sodipodi:docname="bombermaaan.svg"
   width="512"
   height="512"
   inkscape:version="0.92.4 5da689c313, 2019-01-14">
  <metadata
     id="metadata110">
    <rdf:RDF>
      <cc:Work
         rdf:about="">
        <dc:format>image/svg+xml</dc:format>
        <dc:type
           rdf:resource="http://purl.org/dc/dcmitype/StillImage" />
        <dc:title />
      </cc:Work>
    </rdf:RDF>
  </metadata>
  <sodipodi:namedview
     pagecolor="#ffffff"
     bordercolor="#666666"
     borderopacity="1"
     objecttolerance="10"
     gridtolerance="10"
     guidetolerance="10"
     inkscape:pageopacity="0"
     inkscape:pageshadow="2"
     inkscape:window-width="1280"
     inkscape:window-height="964"
     id="namedview108"
     showgrid="false"
     inkscape:zoom="0.59"
     inkscape:cx="-70.338983"
     inkscape:cy="172.88136"
     inkscape:window-x="0"
     inkscape:window-y="0"
     inkscape:window-maximized="1"
     inkscape:current-layer="svg106" />
  <defs
     id="defs62">
    <clipPath
       id="p">
      <path
         transform="matrix(2.0737,0.66917,-0.66917,2.0737,-443.13,-223.64)"
         d="m 546.02,289.18 a 44.7295,44.7295 0 1 1 -89.459,0 44.7295,44.7295 0 1 1 89.459,0 z"
         id="path2"
         inkscape:connector-curvature="0" />
    </clipPath>
    <filter
       id="l">
      <feGaussianBlur
         stdDeviation=".69422"
         id="feGaussianBlur5" />
    </filter>
    <filter
       id="o">
      <feGaussianBlur
         stdDeviation=".3139"
         id="feGaussianBlur8" />
    </filter>
    <filter
       id="c">
      <feGaussianBlur
         stdDeviation="1.02468"
         id="feGaussianBlur11" />
    </filter>
    <filter
       id="m">
      <feGaussianBlur
         stdDeviation=".33393"
         id="feGaussianBlur14" />
    </filter>
    <filter
       id="j"
       x="-0.12398"
       y="-0.12398"
       width="1.248"
       height="1.248">
      <feGaussianBlur
         stdDeviation="4.62145"
         id="feGaussianBlur17" />
    </filter>
    <filter
       id="n"
       x="-0.27652001"
       y="-0.27652001"
       width="1.553"
       height="1.553">
      <feGaussianBlur
         stdDeviation="10.30719"
         id="feGaussianBlur20" />
    </filter>
    <filter
       id="k"
       x="-0.052390002"
       y="-0.11506"
       width="1.1048"
       height="1.2301">
      <feGaussianBlur
         stdDeviation=".25494"
         id="feGaussianBlur23" />
    </filter>
    <linearGradient
       id="i"
       x1="518.12"
       x2="482.79999"
       y1="229.97"
       y2="344.95999"
       gradientUnits="userSpaceOnUse">
      <stop
         stop-color="#fff"
         offset="0"
         id="stop26" />
      <stop
         stop-color="#fff"
         stop-opacity="0"
         offset="1"
         id="stop28" />
    </linearGradient>
    <linearGradient
       id="h"
       x1="418.01999"
       x2="433.01999"
       y1="803.90997"
       y2="761.90997"
       gradientUnits="userSpaceOnUse">
      <stop
         stop-color="#666"
         offset="0"
         id="stop31" />
      <stop
         stop-color="#666"
         stop-opacity="0"
         offset="1"
         id="stop33" />
    </linearGradient>
    <linearGradient
       id="g"
       x1="405.32001"
       x2="397.39001"
       y1="733.75"
       y2="771.94"
       gradientUnits="userSpaceOnUse">
      <stop
         stop-color="#ccc"
         offset="0"
         id="stop36" />
      <stop
         stop-color="#ccc"
         stop-opacity="0"
         offset="1"
         id="stop38" />
    </linearGradient>
    <linearGradient
       id="e"
       x1="454.19"
       x2="457.94"
       y1="722.66998"
       y2="724.48999"
       gradientUnits="userSpaceOnUse">
      <stop
         offset="0"
         id="stop41" />
      <stop
         stop-color="#3c3c3c"
         offset="1"
         id="stop43" />
    </linearGradient>
    <linearGradient
       id="b">
      <stop
         offset="0"
         id="stop46" />
      <stop
         stop-color="#464646"
         offset="1"
         id="stop48" />
    </linearGradient>
    <linearGradient
       id="f"
       x1="429.48999"
       x2="460.70001"
       y1="559.34998"
       y2="560.15002"
       gradientUnits="userSpaceOnUse"
       xlink:href="#b" />
    <linearGradient
       id="d"
       x1="449.59"
       x2="461.66"
       y1="711.89001"
       y2="719.10999"
       gradientUnits="userSpaceOnUse"
       xlink:href="#b" />
    <radialGradient
       id="a"
       cx="483.42001"
       cy="690.38"
       r="15.668"
       gradientTransform="matrix(0.80128,0.46262,-0.47046,0.81486,419.61,-94.548)"
       gradientUnits="userSpaceOnUse">
      <stop
         stop-color="#ddb100"
         offset="0"
         id="stop53" />
      <stop
         stop-color="#ffa000"
         offset=".5"
         id="stop55" />
      <stop
         stop-color="#a26001"
         offset=".75"
         id="stop57" />
      <stop
         stop-color="#c7b00f"
         offset="1"
         id="stop59" />
    </radialGradient>
    <radialGradient
       inkscape:collect="always"
       xlink:href="#a"
       id="radialGradient112"
       gradientUnits="userSpaceOnUse"
       gradientTransform="matrix(0.80128,0.46262,-0.47046,0.81486,419.61,-94.548)"
       cx="483.42001"
       cy="690.38"
       r="15.668" />
    <radialGradient
       inkscape:collect="always"
       xlink:href="#a"
       id="radialGradient114"
       gradientUnits="userSpaceOnUse"
       gradientTransform="matrix(0.80128,0.46262,-0.47046,0.81486,419.61,-94.548)"
       cx="483.42001"
       cy="690.38"
       r="15.668" />
    <radialGradient
       inkscape:collect="always"
       xlink:href="#a"
       id="radialGradient116"
       gradientUnits="userSpaceOnUse"
       gradientTransform="matrix(0.80128,0.46262,-0.47046,0.81486,419.61,-94.548)"
       cx="483.42001"
       cy="690.38"
       r="15.668" />
    <radialGradient
       inkscape:collect="always"
       xlink:href="#a"
       id="radialGradient118"
       gradientUnits="userSpaceOnUse"
       gradientTransform="matrix(0.80128,0.46262,-0.47046,0.81486,419.61,-94.548)"
       cx="483.42001"
       cy="690.38"
       r="15.668" />
  </defs>
  <g
     transform="matrix(4.1539385,0,0,4.5373753,-1602.5207,-3180.825)"
     id="g104">
    <path
       transform="matrix(1.0688,0,0,0.41665,-86.355,668.8)"
       d="m 546.02,289.18 c 0,24.703 -20.026,44.729 -44.729,44.729 -24.703,0 -44.729,-20.026 -44.729,-44.729 0,-24.703 20.026,-44.729 44.729,-44.729 24.703,0 44.729,20.026 44.729,44.729 z"
       id="path64"
       inkscape:connector-curvature="0"
       style="fill:#666666;filter:url(#j)" />
    <path
       transform="matrix(0.97764,0,0,0.97764,-57.681,475.99)"
       d="m 546.02,289.18 c 0,24.703 -20.026,44.729 -44.729,44.729 -24.703,0 -44.729,-20.026 -44.729,-44.729 0,-24.703 20.026,-44.729 44.729,-44.729 24.703,0 44.729,20.026 44.729,44.729 z"
       id="path66"
       inkscape:connector-curvature="0"
       style="fill:#1a1a1a" />
    <path
       transform="matrix(0.95855,0,0,0.95855,-48.11,481.51)"
       d="m 546.02,289.18 c 0,24.703 -20.026,44.729 -44.729,44.729 -24.703,0 -44.729,-20.026 -44.729,-44.729 0,-24.703 20.026,-44.729 44.729,-44.729 24.703,0 44.729,20.026 44.729,44.729 z"
       id="path68"
       inkscape:connector-curvature="0" />
    <g
       transform="matrix(0.43675,-0.14094,0.14094,0.43675,154.36,505.18)"
       clip-path="url(#p)"
       id="g74"
       style="opacity:0.18584002;fill:url(#radialGradient116);filter:url(#l)">
      <path
         transform="matrix(0.32731,0.1967,-0.1967,0.32731,476.51,378.32)"
         d="m 490.72,704.88 -8.3018,-8.6872 -5.644,10.608 1.6158,-11.907 -11.813,2.2015 10.317,-6.1606 -9.0863,-7.863 11.249,4.2248 0.48232,-12.006 3.7105,11.429 9.6877,-7.1088 -6.622,10.027 11.598,3.1419 -11.968,1.0743 z"
         id="path70"
         inkscape:connector-curvature="0"
         style="fill:url(#radialGradient112);filter:url(#o)" />
      <path
         transform="matrix(0.35708,0.42375,-0.42375,0.35708,619.16,248.29)"
         d="m 490.72,704.88 -8.3018,-8.6872 -5.644,10.608 1.6158,-11.907 -11.813,2.2015 10.317,-6.1606 -9.0863,-7.863 11.249,4.2248 0.48232,-12.006 3.7105,11.429 9.6877,-7.1088 -6.622,10.027 11.598,3.1419 -11.968,1.0743 z"
         id="path72"
         inkscape:connector-curvature="0"
         style="fill:url(#radialGradient114);filter:url(#c)" />
    </g>
    <path
       transform="matrix(0.13447,0,0,0.13447,388.87,697.44)"
       d="m 546.02,289.18 c 0,24.703 -20.026,44.729 -44.729,44.729 -24.703,0 -44.729,-20.026 -44.729,-44.729 0,-24.703 20.026,-44.729 44.729,-44.729 24.703,0 44.729,20.026 44.729,44.729 z"
       id="path76"
       inkscape:connector-curvature="0"
       style="fill:#ffffff;filter:url(#n)" />
    <path
       d="m 466.45,712.38 c -5.5294,-0.47024 -9.4247,-1.9441 -11.937,2.2528 -1.3207,1.9967 -1.8619,4.086 1.8699,4.4849 0.22462,0.0195 0.60387,0.66165 0.57364,0.88214 -0.19722,1.4387 1.5542,-1.9351 1.5912,-2.7938 -0.043,0.47216 -0.0289,0.15492 0.0625,-0.0625 0.0914,-0.21742 0.22278,-0.50259 0.375,-0.78125 0.13962,-0.2556 0.29532,-0.50133 0.40625,-0.65625 8.7925,-4.0045 8.0019,3.7128 12.959,4.958 4.9571,1.2452 9.4035,2.2054 12.447,-1.1768 0.66287,-0.80992 0.52897,-2.15 -0.28105,-2.8127 -0.81002,-0.6627 -2.1501,-0.52864 -2.8127,0.28149 -5.3808,3.5307 -6.6552,1.495 -8.9865,0.64471 -2.0613,-1.328 -4.8245,-4.1117 -6.2676,-5.2207 z"
       id="path78"
       inkscape:connector-curvature="0"
       style="fill:#2b1100" />
    <path
       d="m 464.54,738.94 c -1.539,-0.56843 -4.9694,-2.4797 -4.5102,-3.9025 0.67388,-0.46663 3.3962,3.7489 7.9377,2.4543 1.5686,0.29211 2.9396,0.59554 2.9516,1.8698 0.9857,0.48437 0.83126,0.88393 0.46958,0.95745 -1.3751,-0.98492 -1.9628,-2.3324 -4.0288,-1.9725 -0.83811,0.0925 -2.1918,0.48135 -2.8196,0.59341 z"
       id="path80"
       inkscape:connector-curvature="0"
       style="opacity:0.85283;fill:#28170b;filter:url(#k)" />
    <path
       d="m 456.35,726.04 6.75,8.8384 c -0.25331,0.93439 -0.81987,1.8061 -3.4001,2.2751 l -12.201,-10.913 z"
       id="path82"
       inkscape:connector-curvature="0"
       style="fill:#1a1a1a;filter:url(#m)" />
    <path
       transform="matrix(0.69027,0,0,0.47788,86.377,601.51)"
       d="m 546.02,289.18 c 0,24.703 -20.026,44.729 -44.729,44.729 -24.703,0 -44.729,-20.026 -44.729,-44.729 0,-24.703 20.026,-44.729 44.729,-44.729 24.703,0 44.729,20.026 44.729,44.729 z"
       id="path84"
       inkscape:connector-curvature="0"
       style="fill:url(#i)" />
    <path
       d="m 462.42,784.73 c -8.3281,6.7553 -18.946,10.799 -30.505,10.799 -10.279,0 -19.8,-3.2112 -27.641,-8.6707 6.6022,8.3527 16.798,13.715 28.272,13.715 12.423,0 23.392,-6.2816 29.875,-15.844 z"
       id="path86"
       inkscape:connector-curvature="0"
       style="fill:url(#h)" />
    <path
       d="m 397.46,741.39 c -2.2838,4.4803 -3.5607,8.5157 -4.0838,12.204 1.0278,0.13595 2.0904,0.31245 3.1763,0.54928 0.79872,-4.7023 2.4526,-8.4574 4.4898,-11.32 -1.2294,-0.26808 -2.4289,-0.70877 -3.5823,-1.4329 z m 13.135,1.5762 c -2.7554,0.064 -5.5492,0.42397 -8.2392,0.0955 -2.1265,2.7459 -4.0303,6.487 -5.0152,11.272 1.2597,0.30039 2.5623,0.65613 3.8927,1.0986 1.439,-3.9546 4.1358,-8.0302 9.3617,-12.466 z m -17.314,11.392 c -0.66073,5.7469 0.48252,10.679 2.4121,15.261 l 1.2657,0.42987 c -1.0869,-5.8368 -1.1509,-10.915 -0.50152,-15.237 -1.087,-0.20488 -2.1496,-0.35418 -3.1763,-0.45375 z m 3.9405,0.62093 c -0.79531,4.2897 -0.84322,9.3858 0.2627,15.26 l 1.7195,0.59705 c 0.40515,-5.1208 0.1959,-9.8963 1.8628,-14.855 -1.3143,-0.40706 -2.6031,-0.7424 -3.845,-1.003 z"
       id="path88"
       inkscape:connector-curvature="0"
       style="fill:url(#g)" />
    <path
       transform="matrix(0.47713,0.26843,-0.26843,0.47713,393,343.39)"
       d="m 447.09,557.41 c 0,2.0967 -5.0992,3.7965 -11.389,3.7965 -6.2898,0 -11.389,-1.6998 -11.389,-3.7965 0,-2.0967 5.0992,-3.7965 11.389,-3.7965 6.2898,0 11.389,1.6997 11.389,3.7965 z"
       id="path90"
       inkscape:connector-curvature="0" />
    <path
       d="m 452.25,713.9375 -5.25,9.375 0.0625,0.0312 c -0.0862,0.0588 -0.17077,0.13346 -0.21875,0.21875 -0.47459,0.84358 1.188,2.66997 3.71875,4.09375 2.53075,1.42378 4.99416,1.90608 5.46875,1.0625 0.0445,-0.0791 0.0546,-0.18584 0.0625,-0.28125 l 0.0625,0.0312 5.28125,-9.375 c -3.0722,1.06924 -9.66579,-3.34064 -9.1875,-5.15625 z"
       id="path92"
       inkscape:connector-curvature="0"
       style="fill:url(#e)" />
    <path
       transform="matrix(0.36502,0.20536,-0.17371,0.30877,394.64,454.87)"
       d="m 447.09,557.41 c 0,2.0967 -5.0992,3.7965 -11.389,3.7965 -6.2898,0 -11.389,-1.6998 -11.389,-3.7965 0,-2.0967 5.0992,-3.7965 11.389,-3.7965 6.2898,0 11.389,1.6997 11.389,3.7965 z"
       id="path94"
       inkscape:connector-curvature="0"
       style="fill:url(#f)" />
    <path
       d="m 454.86736,714.08459 c -0.12305,0.17157 -0.22672,0.367 -0.34375,0.5625 -0.28675,0.43351 -0.54125,0.85725 -0.71875,1.28125 0.61512,0.54526 1.42463,1.15283 2.375,1.6875 0.67647,0.38058 1.32752,0.66948 1.9375,0.90625 0.18901,-0.43144 0.34733,-0.80683 0.40625,-1.09375 0.01,-0.0475 0.0481,-0.17254 0.0937,-0.28125 0.0914,-0.21742 0.22278,-0.50259 0.375,-0.78125 0.0204,-0.0373 0.0416,-0.0571 0.0625,-0.0937 -0.46401,-0.33915 -0.98848,-0.67706 -1.5625,-1 -0.94051,-0.52913 -1.84489,-0.94408 -2.625,-1.1875 z"
       id="path96"
       inkscape:connector-curvature="0"
       style="fill:#2b1100" />
    <path
       d="m 453.56,713.47 c -0.63124,-0.0342 -1.1033,0.0899 -1.2812,0.40625 -0.47459,0.84358 1.188,2.7012 3.7188,4.125 2.5308,1.4238 4.9942,1.8748 5.4688,1.0312 0.4746,-0.8436 -1.2192,-2.67 -3.75,-4.0938 -1.5817,-0.88987 -3.1042,-1.4118 -4.1562,-1.4688 z m -0.1875,0.4375 c 0.84851,-0.0642 2.4725,0.459 4.1562,1.4062 2.245,1.263 3.7624,2.8045 3.4062,3.4375 -0.3562,0.633 -2.4738,0.138 -4.7188,-1.125 -2.245,-1.263 -3.7624,-2.8045 -3.4062,-3.4375 0.089,-0.15825 0.27966,-0.25985 0.5625,-0.28125 z"
       id="path98"
       inkscape:connector-curvature="0"
       style="fill:url(#d)" />
    <path
       transform="matrix(0.50275,0.31409,-0.31409,0.50275,459.47,218.91)"
       d="m 490.72,704.88 c -0.10013,0.0664 -8.1828,-8.7036 -8.3018,-8.6872 -0.119,0.0164 -5.5296,10.645 -5.644,10.608 -0.1144,-0.037 1.7028,-11.824 1.6158,-11.907 -0.087,-0.083 -11.77,2.3139 -11.813,2.2015 -0.043,-0.1124 10.306,-6.0409 10.317,-6.1606 0.011,-0.1197 -9.1477,-7.7597 -9.0863,-7.863 0.0614,-0.1033 11.149,4.2912 11.249,4.2248 0.1,-0.0664 0.36328,-11.99 0.48232,-12.006 0.11904,-0.016 3.5961,11.392 3.7105,11.429 0.1144,0.037 9.6007,-7.1917 9.6877,-7.1088 0.087,0.0829 -6.6645,9.9144 -6.622,10.027 0.0425,0.1126 11.609,3.0222 11.598,3.1419 -0.011,0.1197 -11.907,0.971 -11.968,1.0743 -0.061,0.1033 4.875,10.96 4.7748,11.027 z"
       id="path100"
       inkscape:connector-curvature="0"
       style="fill:url(#radialGradient118);filter:url(#c)" />
    <path
       d="m 455.08988,713.76279 c -0.0788,0.10087 -0.14235,0.23383 -0.21875,0.34375 0.77017,0.23736 1.66894,0.63596 2.59375,1.15625 0.59204,0.33308 1.10049,0.68901 1.57031,1.03906 0.0737,-0.13492 0.13332,-0.27338 0.20703,-0.3909 -0.48615,-0.36226 -0.99322,-0.6875 -1.58984,-1.02316 -0.90273,-0.50788 -1.7748,-0.87487 -2.5625,-1.125 z"
       id="path102"
       inkscape:connector-curvature="0"
       style="fill:#2b1100" />
  </g>
</svg>
